<svg width="26" height="27" viewBox="0 0 26 27" fill="none" xmlns="http://www.w3.org/2000/svg">
<path d="M18.0586 17.6251C19.6703 15.865 20.6272 13.6039 20.7688 11.2216C20.9103 8.83932 20.2279 6.48087 18.836 4.54232C17.4441 2.60377 15.4275 1.20318 13.125 0.575765C10.8224 -0.0516554 8.37412 0.132305 6.19119 1.09675C4.00826 2.0612 2.22365 3.74739 1.13706 5.87217C0.0504707 7.99695 -0.271923 10.4309 0.224019 12.7653C0.719961 15.0997 2.00403 17.1923 3.8606 18.6919C5.71717 20.1914 8.03316 21.0064 10.4196 21.0001C12.672 21.0031 14.8635 20.2691 16.6597 18.9101L24.4076 26.7171C24.4931 26.8061 24.5956 26.8772 24.7089 26.9261C24.8222 26.9751 24.9442 27.0009 25.0676 27.0021C25.1913 27.0024 25.3138 26.9773 25.4273 26.9283C25.5409 26.8793 25.6431 26.8074 25.7276 26.7171C25.9016 26.5362 25.9987 26.295 25.9987 26.0441C25.9987 25.7931 25.9016 25.5519 25.7276 25.371L18.0586 17.6251ZM1.88565 10.5001C1.89848 8.81477 2.40996 7.17101 3.35561 5.776C4.30126 4.38098 5.63875 3.29715 7.19946 2.66114C8.76017 2.02513 10.4743 1.86542 12.1256 2.20213C13.7769 2.53884 15.2917 3.3569 16.4788 4.55319C17.6659 5.74948 18.4722 7.27044 18.7962 8.92433C19.1202 10.5782 18.9473 12.291 18.2993 13.8468C17.6512 15.4026 16.5571 16.7316 15.1549 17.6665C13.7526 18.6014 12.105 19.1002 10.4196 19.1C8.14819 19.0892 5.97384 18.1775 4.37386 16.5652C2.77388 14.9528 1.879 12.7715 1.88565 10.5001V10.5001Z" fill="#E8E8E8"/>
</svg>
